# xmcd CD database file
#
# Track frame offsets:
#	150
#	39444
#	86779
#	124315
#	160246
#	228547
#
# Disc length: 4259 seconds
#
# Revision: 0
# Processed by: cddbd v1.5.1PL0 Copyright (c) Steve Scherf et al.
# Submitted via: CDex 1.51
#
DISCID=4910a106
DTITLE=Jacob Fred Jazz Odyssey - Live at Your Mama's House
DYEAR=2000
DGENRE=Jazz
TTITLE0=Pacific
TTITLE1=Basteri (pt1)
TTITLE2=Basteri (pt2)
TTITLE3=Seansong
TTITLE4=Good Energy Perpetuates Good Energy
TTITLE5=I Mean You/Epistrophy/The Man Who Adjusted Tonalities
EXTD=YEAR: 2000
EXTT0=
EXTT1=
EXTT2=
EXTT3=
EXTT4=
EXTT5=
PLAYORDER=
